<?xml version="1.0" encoding="UTF-8"?>
<svg xmlns="http://www.w3.org/2000/svg" xmlns:xlink="http://www.w3.org/1999/xlink" width="16pt" height="16pt" viewBox="0 0 16 16" version="1.1">
<g id="surface1">
<path style=" stroke:none;fill-rule:nonzero;fill:rgb(92.941176%,47.058824%,60%);fill-opacity:1;" d="M 12.714844 1.464844 L 14.417969 3.167969 C 14.808594 3.558594 14.808594 4.191406 14.417969 4.582031 L 13.5 5.496094 L 10.386719 2.378906 L 11.300781 1.464844 C 11.691406 1.074219 12.324219 1.074219 12.714844 1.464844 Z M 12.714844 1.464844 "/>
<path style=" stroke:none;fill-rule:nonzero;fill:rgb(76.078431%,80.392157%,90.588235%);fill-opacity:1;" d="M 9.78125 2.21875 L 13.78125 6.21875 L 12.128906 7.875 L 8.125 3.875 Z M 9.78125 2.21875 "/>
<path style=" stroke:none;fill-rule:nonzero;fill:rgb(97.647059%,89.019608%,68.235294%);fill-opacity:1;" d="M 8.53125 4.21875 L 11.78125 7.46875 L 4.625 14.625 L 1.375 11.375 Z M 8.53125 4.21875 "/>
<path style=" stroke:none;fill-rule:nonzero;fill:rgb(96.470588%,82.745098%,59.215686%);fill-opacity:1;" d="M 10.65625 6.34375 L 11.78125 7.46875 L 4.625 14.625 L 3.5 13.5 Z M 10.65625 6.34375 "/>
<path style=" stroke:none;fill-rule:nonzero;fill:rgb(98.039216%,93.72549%,87.058824%);fill-opacity:1;" d="M 1.25 14.25 L 1.5 11.5 L 3.25 11.75 L 3.5 12.5 L 4.230469 12.875 L 4.75 14.75 L 1.75 14.75 Z M 1.25 14.25 "/>
<path style=" stroke:none;fill-rule:nonzero;fill:rgb(98.039216%,93.72549%,87.058824%);fill-opacity:1;" d="M 8.53125 4.21875 L 9.65625 5.34375 L 2.5 12.5 L 1.375 11.375 Z M 8.53125 4.21875 "/>
<path style=" stroke:none;fill-rule:nonzero;fill:rgb(55.294118%,42.352941%,62.352941%);fill-opacity:1;" d="M 15.148438 3.976562 C 15.148438 3.710938 15.042969 3.457031 14.855469 3.269531 L 12.734375 1.148438 C 12.335938 0.769531 11.714844 0.769531 11.316406 1.148438 L 10.25 2.207031 C 10.15625 2.113281 10.03125 2.0625 9.898438 2.0625 C 9.765625 2.0625 9.636719 2.113281 9.542969 2.207031 L 8.128906 3.621094 C 8.035156 3.714844 7.980469 3.84375 7.980469 3.976562 C 7.980469 4.109375 8.035156 4.238281 8.128906 4.332031 L 8.140625 4.34375 L 1.378906 11.101562 C 1.253906 11.226562 1.175781 11.394531 1.164062 11.570312 L 1 13.671875 L 0.824219 14.902344 C 0.816406 14.972656 0.835938 15.046875 0.886719 15.101562 C 0.933594 15.15625 1.003906 15.1875 1.074219 15.183594 L 1.101562 15.183594 L 2.332031 15 L 4.441406 14.84375 C 4.621094 14.832031 4.789062 14.753906 4.917969 14.628906 L 11.6875 7.878906 C 11.882812 8.0625 12.1875 8.0625 12.378906 7.878906 L 13.796875 6.464844 C 13.890625 6.371094 13.941406 6.242188 13.941406 6.109375 C 13.941406 5.976562 13.890625 5.847656 13.796875 5.753906 L 14.855469 4.695312 C 15.046875 4.503906 15.152344 4.246094 15.148438 3.976562 Z M 2.976562 11.976562 L 3.121094 12.695312 C 3.140625 12.792969 3.21875 12.871094 3.316406 12.890625 L 4.035156 13.035156 L 4.304688 14.371094 L 2.398438 14.5 L 1.5 13.601562 L 1.652344 11.703125 Z M 4.75 14.089844 L 4.5 12.894531 L 8.667969 8.75 C 8.753906 8.652344 8.746094 8.503906 8.65625 8.410156 C 8.5625 8.320312 8.414062 8.3125 8.316406 8.398438 L 4.164062 12.542969 L 3.574219 12.425781 L 3.457031 11.835938 L 6.898438 8.394531 C 6.984375 8.296875 6.976562 8.148438 6.886719 8.054688 C 6.792969 7.964844 6.644531 7.957031 6.546875 8.042969 L 3.105469 11.484375 L 1.9375 11.25 L 8.5 4.695312 L 11.332031 7.523438 Z M 13.085938 6.449219 C 12.988281 6.355469 12.832031 6.355469 12.734375 6.449219 L 12.378906 6.804688 C 12.285156 6.902344 12.285156 7.058594 12.378906 7.15625 L 12.027344 7.5 L 8.5 3.976562 L 8.851562 3.621094 C 8.949219 3.71875 9.109375 3.71875 9.207031 3.621094 L 9.558594 3.269531 C 9.65625 3.171875 9.65625 3.015625 9.558594 2.917969 L 9.910156 2.566406 L 10.089844 2.742188 L 13.261719 5.921875 L 13.441406 6.097656 Z M 14.5 4.328125 L 13.441406 5.386719 L 10.609375 2.558594 L 11.671875 1.5 C 11.765625 1.40625 11.894531 1.355469 12.027344 1.355469 C 12.160156 1.355469 12.285156 1.40625 12.378906 1.5 L 14.5 3.621094 C 14.59375 3.714844 14.648438 3.84375 14.648438 3.976562 C 14.648438 4.109375 14.59375 4.238281 14.5 4.332031 Z M 14.5 4.328125 "/>
<path style=" stroke:none;fill-rule:nonzero;fill:rgb(55.294118%,42.352941%,62.352941%);fill-opacity:1;" d="M 10.082031 3.796875 L 9.726562 4.152344 C 9.652344 4.210938 9.617188 4.308594 9.640625 4.402344 C 9.664062 4.496094 9.734375 4.570312 9.828125 4.589844 C 9.921875 4.609375 10.019531 4.574219 10.082031 4.5 L 10.433594 4.148438 C 10.519531 4.046875 10.511719 3.902344 10.417969 3.808594 C 10.328125 3.714844 10.179688 3.710938 10.082031 3.796875 Z M 10.082031 3.796875 "/>
<path style=" stroke:none;fill-rule:nonzero;fill:rgb(55.294118%,42.352941%,62.352941%);fill-opacity:1;" d="M 10.964844 4.683594 L 10.613281 5.035156 C 10.542969 5.097656 10.511719 5.191406 10.53125 5.285156 C 10.554688 5.375 10.625 5.445312 10.71875 5.46875 C 10.808594 5.492188 10.90625 5.460938 10.964844 5.386719 L 11.316406 5.035156 C 11.402344 4.9375 11.398438 4.789062 11.304688 4.695312 C 11.210938 4.605469 11.066406 4.597656 10.964844 4.683594 Z M 10.964844 4.683594 "/>
<path style=" stroke:none;fill-rule:nonzero;fill:rgb(55.294118%,42.352941%,62.352941%);fill-opacity:1;" d="M 11.847656 5.566406 L 11.5 5.921875 C 11.429688 5.980469 11.398438 6.078125 11.421875 6.167969 C 11.441406 6.261719 11.511719 6.332031 11.605469 6.351562 C 11.695312 6.375 11.792969 6.34375 11.851562 6.273438 L 12.207031 5.921875 C 12.289062 5.820312 12.285156 5.671875 12.191406 5.582031 C 12.101562 5.488281 11.953125 5.484375 11.851562 5.566406 Z M 11.847656 5.566406 "/>
<path style=" stroke:none;fill-rule:nonzero;fill:rgb(55.294118%,42.352941%,62.352941%);fill-opacity:1;" d="M 7.960938 6.628906 L 7.25 7.332031 C 7.179688 7.394531 7.148438 7.488281 7.171875 7.582031 C 7.191406 7.671875 7.261719 7.742188 7.355469 7.765625 C 7.445312 7.789062 7.542969 7.757812 7.601562 7.683594 L 8.308594 6.976562 C 8.394531 6.878906 8.390625 6.730469 8.296875 6.636719 C 8.203125 6.546875 8.058594 6.539062 7.957031 6.625 Z M 7.960938 6.628906 "/>
</g>
</svg>
