<?xml version="1.0" encoding="utf-8"?>
<!-- Generator: Adobe Illustrator 17.0.0, SVG Export Plug-In . SVG Version: 6.00 Build 0)  -->
<!DOCTYPE svg PUBLIC "-//W3C//DTD SVG 1.1//EN" "http://www.w3.org/Graphics/SVG/1.1/DTD/svg11.dtd">
<svg version="1.1" id="Layer_1" focusable="false" xmlns="http://www.w3.org/2000/svg" xmlns:xlink="http://www.w3.org/1999/xlink"
	 x="0px" y="0px" width="150px" height="150px" viewBox="0 0 150 150" enable-background="new 0 0 150 150" xml:space="preserve">
<g id="XMLID_1_">
	<g>
		<path fill="#EEEEEE" stroke="#000000" stroke-width="3" stroke-miterlimit="10" d="M79.98,108.37c-2.75,2.75-7.21,2.75-9.96,0
			l-39.7-39.7c-2.75-2.72-2.75-7.18,0-9.93l4.98-4.98c2.73-2.75,7.18-2.75,9.93,0L75,83.53l29.77-29.77c2.72-2.75,7.17-2.75,9.93,0
			l4.98,4.98c2.75,2.72,2.75,7.18,0,9.93L79.98,108.37z"/>
		<path fill="#63FFD9" stroke="#000000" stroke-width="3" stroke-miterlimit="10" d="M75,2.34c40.14,0,72.66,32.52,72.66,72.66
			S115.14,147.66,75,147.66S2.34,115.14,2.34,75S34.86,2.34,75,2.34z M119.68,68.67c2.75-2.75,2.75-7.21,0-9.93l-4.98-4.98
			c-2.76-2.75-7.21-2.75-9.93,0L75,83.53L45.23,53.76c-2.75-2.75-7.2-2.75-9.93,0l-4.98,4.98c-2.75,2.75-2.75,7.21,0,9.93l39.7,39.7
			c2.75,2.75,7.21,2.75,9.96,0L119.68,68.67z"/>
	</g>
</g>
<polygon points="-796.5,-316.5 -796.5,-316.5 -796.5,-316.5 "/>
<rect x="-796.5" y="-322.5" width="0" height="231"/>
</svg>
